<svg width="144" height="144" viewBox="0 0 144 144" fill="none" xmlns="http://www.w3.org/2000/svg">
<rect width="144" height="144" fill="#932F67"/>
<path d="M68.741 19.9892C70.8953 19.8691 73.0805 19.7966 75.2302 19.9984C77.1773 19.9105 81.4167 20.9347 83.3058 21.5205C92.5153 24.3756 100.797 30.9654 105.363 39.496C108.004 44.4539 110.47 51.7612 110.051 57.4791C109.514 64.803 102.949 73.9565 98.0461 78.9614C88.4955 88.7221 75.6368 93.0175 62.317 94.3643C51.6753 95.4401 40.1984 94.8077 30.4265 99.861C23.503 103.442 20.1123 108.856 17.8868 116.158C15.0573 115.179 12.1616 114.262 9.35986 113.234C10.632 109.667 11.4026 107.349 13.3223 104.03C19.6826 93.0339 31.2451 88.3858 43.3273 86.8337C45.3206 86.5779 47.4289 86.279 49.4528 86.1276C52.567 85.8943 55.7897 85.8567 58.9056 85.5995C66.332 84.9869 74.4102 83.5392 81.1322 80.2283C87.713 77.0061 92.7049 71.8049 94.9099 64.734C98.8239 52.1805 91.2654 38.816 78.8802 34.9476C66.5554 31.0979 53.3701 38.0111 49.2363 50.1323C47.0941 56.4138 47.5598 62.9028 50.6053 68.7581C53.2925 74.0456 58.3106 78.7458 63.9971 80.5851C62.9056 80.6547 61.7726 80.9555 60.6802 81.0545C56.0762 81.47 51.4643 81.6098 46.8615 82.0151C44.6891 82.2061 42.5596 82.5138 40.4021 82.8099C39.8155 81.7674 39.175 80.2699 38.6875 79.1476C36.0144 73.1391 34.3518 66.7304 33.7668 60.1801C33.5748 57.8152 33.6838 55.8383 33.9724 53.4767C34.8349 46.0435 37.8775 39.0318 42.7169 33.3243C49.263 25.5827 58.6338 20.781 68.741 19.9892Z" fill="white"/>
<path d="M68.7413 19.9892C70.8956 19.8691 73.0808 19.7966 75.2305 19.9984C74.903 20.1885 70.3826 19.9713 69.5953 20.1008C69.4859 20.1188 68.7962 20.0993 68.6782 20.08L68.7413 19.9892Z" fill="white"/>
<path d="M99.6197 90.337L99.6763 90.4516C99.0562 91.6906 98.0574 93.1247 97.2858 94.3199C90.707 104.512 83.0572 114.167 74.5791 122.846C73.2685 124.188 71.5636 124.628 69.9896 123.429C68.6413 122.402 67.3542 120.931 66.2046 119.666C64.3685 117.676 62.5856 115.639 60.8576 113.555C60.506 113.164 60.1484 112.71 59.815 112.301C56.4807 108.208 53.1185 103.994 50.1592 99.6202C61.0656 99.1004 72.1838 98.1132 82.4404 94.1119C83.2646 93.7905 85.3645 92.7985 86.1381 92.6962C90.7541 92.0883 95.145 91.8148 99.6197 90.337Z" fill="white"/>
<path d="M134.59 52.5352L134.667 52.6241C134.623 53.4077 134.265 55.2321 134.118 56.0399C133.775 57.9065 133.443 59.7751 133.121 61.6454L131.614 70.4986C131.403 71.7243 131.166 73.5607 130.865 74.7181C129.062 73.1924 127.168 71.3402 125.364 69.7365C119.914 75.0666 114.746 79.4513 107.773 82.6994C105.581 83.7207 103.586 84.7529 101.231 85.4959C99.5106 86.039 96.9359 86.9197 95.1553 87.1722L95.145 87.0978C99.1907 84.0959 102.772 80.5162 105.777 76.4728C106.83 75.0316 107.783 73.2408 108.873 71.8741C109.322 71.3101 110.922 70.5196 111.592 69.9875C113.906 68.1506 116.484 66.1516 118.415 63.9051C117.059 62.3944 114.582 60.2253 113.03 58.8119C120.029 56.689 127.526 54.3462 134.59 52.5352Z" fill="white"/>
<path d="M71.5576 57.3276C71.9628 57.2942 72.6212 57.3407 73.0415 57.3921C76.0556 57.7605 78.1173 59.0635 79.9675 61.4003C80.1926 61.2672 80.4212 61.139 80.6524 61.0161C82.6725 59.9575 84.8127 59.654 87.0279 60.324C88.4913 60.7667 89.9294 61.7598 90.6505 63.1428C90.4622 65.0199 89.164 67.2591 88.1222 68.8139C88.1584 67.5858 88.0321 66.4797 87.1718 65.5157C86.5565 64.8304 85.688 64.4256 84.7677 64.3949C83.6399 64.3524 82.2768 64.9469 82.0756 66.119C81.9364 66.93 81.9876 68.2363 81.9876 69.089L82.0012 74.4895C80.5876 75.4193 79.1815 76.0833 77.6315 76.7555L77.6199 70.3522C77.6226 68.2031 77.9174 66.0046 76.6088 64.185C75.6107 62.7965 74.3643 62.0466 72.6942 61.7522C72.4909 61.7284 72.2855 61.7153 72.0809 61.7129C70.505 61.6949 69.183 62.2181 68.0462 63.315C65.9461 65.3413 66.2086 67.9888 66.1925 70.6625L66.1873 76.6361C64.9436 76.0763 62.8212 75.4268 61.887 74.5019C61.7557 72.709 61.9462 70.3835 61.8741 68.548C61.829 67.8587 61.9601 66.9012 61.7876 66.2365C61.2354 64.1092 58.3484 63.8291 56.9491 65.2424C55.963 66.2385 55.667 67.402 55.6432 68.726C55.4052 68.0809 54.8722 67.1802 54.5508 66.525C53.9916 65.3854 53.6382 64.4283 53.2983 63.2119C54.5075 60.3795 58.4139 59.4745 61.1442 60.2034C62.1622 60.4752 62.9519 60.9001 63.8488 61.4158C64.0415 61.1753 64.2403 60.9397 64.445 60.7092C66.3768 58.5512 68.667 57.4908 71.5576 57.3276Z" fill="white"/>
<path d="M71.7232 46.0036C74.36 45.9024 76.5827 47.9507 76.6967 50.5867C76.8106 53.2228 74.7734 55.4556 72.138 55.5828C69.4843 55.7109 67.2324 53.6563 67.1174 51.0017C67.0024 48.3472 69.0682 46.1055 71.7232 46.0036Z" fill="white"/>
<path d="M84.1689 50.414C86.3452 50.1843 88.3019 51.7484 88.5564 53.9222C88.8115 56.0961 87.2703 58.0706 85.1002 58.3511C83.6729 58.5355 82.2573 57.9386 81.3929 56.7883C80.5285 55.6379 80.3498 54.1118 80.9242 52.7926C81.4987 51.4734 82.7376 50.5649 84.1689 50.414Z" fill="white"/>
<path d="M58.7251 50.4201C60.895 50.1556 62.8741 51.6855 63.1647 53.8522C63.4552 56.0187 61.9491 58.0161 59.7861 58.3326C58.3637 58.5406 56.9393 57.9679 56.0569 56.833C55.1745 55.6981 54.9704 54.1764 55.5227 52.8491C56.0749 51.5218 57.2982 50.5941 58.7251 50.4201Z" fill="white"/>
</svg>
