<svg width="1000" height="1000" viewBox="0 0 1000 1000" fill="none" xmlns="http://www.w3.org/2000/svg">
<path d="M477.369 138.814C492.33 137.981 507.505 137.476 522.433 138.878C535.955 138.268 565.395 145.38 578.513 149.448C642.468 169.275 699.979 215.038 731.689 274.278C750.029 308.708 767.155 359.453 764.246 399.161C760.518 450.021 714.927 513.587 680.877 548.343C614.553 616.126 525.257 645.955 432.758 655.308C358.857 662.779 279.156 658.387 211.296 693.48C163.216 718.348 139.67 755.942 124.215 806.651C104.565 799.852 84.4566 793.489 65 786.345C73.8346 761.576 79.1859 745.477 92.5169 722.427C136.686 646.069 216.981 613.791 300.885 603.012C314.727 601.236 329.368 599.16 343.423 598.109C365.05 596.488 387.429 596.228 409.068 594.442C460.64 590.187 516.738 580.134 563.419 557.141C609.119 534.765 643.785 498.645 659.097 449.542C686.278 362.365 633.789 269.556 547.78 242.692C462.191 215.958 370.627 263.967 341.92 348.141C327.043 391.763 330.278 436.825 351.427 477.487C370.088 514.206 404.936 546.846 444.426 559.619C436.846 560.102 428.977 562.192 421.391 562.879C389.419 565.764 357.392 566.735 325.428 569.549C310.342 570.876 295.553 573.013 280.571 575.069C276.497 567.83 272.05 557.43 268.664 549.637C250.101 507.911 238.555 463.406 234.493 417.918C233.16 401.495 233.916 387.766 235.921 371.366C241.91 319.747 263.039 271.054 296.646 231.419C342.105 177.658 407.18 144.313 477.369 138.814Z" fill="#932F67"/>
<path d="M477.369 138.814C492.329 137.981 507.504 137.476 522.433 138.878C520.159 140.198 488.767 138.69 483.299 139.589C482.539 139.715 477.75 139.579 476.931 139.445L477.369 138.814Z" fill="#932F67"/>
<path d="M691.802 627.341L692.195 628.137C687.889 636.74 680.953 646.699 675.594 655C629.908 725.777 576.784 792.826 517.909 853.095C508.808 862.414 496.968 865.47 486.037 857.146C476.674 850.011 467.736 839.801 459.753 831.012C447.002 817.197 434.62 803.05 422.621 788.576C420.179 785.861 417.695 782.711 415.38 779.868C392.226 751.446 368.877 722.181 348.326 691.807C424.065 688.197 501.275 681.342 572.501 653.555C578.225 651.323 592.807 644.434 598.18 643.724C630.235 639.502 660.727 637.603 691.802 627.341Z" fill="#932F67"/>
<path d="M934.652 364.827L935.188 365.445C934.88 370.887 932.392 383.556 931.369 389.166C928.991 402.128 926.683 415.105 924.452 428.093L913.982 489.574C912.518 498.086 910.869 510.838 908.78 518.876C896.262 508.28 883.111 495.418 870.579 484.281C832.734 521.296 796.841 551.745 748.422 574.301C733.2 581.394 719.346 588.562 702.992 593.722C691.043 597.493 673.163 603.609 660.798 605.362L660.727 604.846C688.821 584 713.694 559.141 734.559 531.061C741.874 521.053 748.493 508.617 756.059 499.125C759.181 495.209 770.291 489.719 774.944 486.025C791.014 473.268 808.913 459.386 822.326 443.786C812.907 433.295 795.704 418.231 784.931 408.416C833.535 393.674 885.598 377.404 934.652 364.827Z" fill="#932F67"/>
<path d="M496.93 398.108C499.744 397.876 504.316 398.199 507.234 398.556C528.166 401.114 542.483 410.163 555.332 426.391C556.895 425.466 558.482 424.576 560.088 423.723C574.117 416.371 588.979 414.264 604.362 418.917C614.525 421.991 624.512 428.887 629.52 438.491C628.212 451.527 619.196 467.077 611.962 477.874C612.213 469.345 611.336 461.664 605.362 454.969C601.089 450.21 595.058 447.399 588.666 447.186C580.835 446.891 571.369 451.02 569.971 459.159C569.005 464.791 569.36 473.863 569.36 479.784L569.455 517.288C559.638 523.745 549.874 528.356 539.11 533.024L539.029 488.556C539.048 473.632 541.095 458.365 532.008 445.728C525.077 436.087 516.421 430.878 504.823 428.835C503.411 428.669 501.985 428.578 500.564 428.561C489.62 428.437 480.439 432.07 472.545 439.687C457.961 453.759 459.784 472.144 459.672 490.712L459.636 532.195C450.999 528.307 436.26 523.797 429.773 517.374C428.861 504.923 430.184 488.774 429.683 476.027C429.37 471.24 430.28 464.591 429.082 459.975C425.248 445.202 405.199 443.257 395.482 453.072C388.634 459.989 386.579 468.069 386.413 477.263C384.76 472.784 381.059 466.529 378.827 461.979C374.944 454.065 372.49 447.418 370.129 438.971C378.527 419.302 405.654 413.017 424.615 418.079C431.684 419.966 437.168 422.917 443.396 426.498C444.735 424.828 446.115 423.192 447.537 421.591C460.952 406.605 476.857 399.242 496.93 398.108Z" fill="#932F67"/>
<path d="M498.076 319.47C516.388 318.767 531.823 332.991 532.614 351.297C533.405 369.603 519.259 385.108 500.957 385.992C482.528 386.882 466.89 372.613 466.091 354.179C465.293 335.745 479.639 320.177 498.076 319.47Z" fill="#932F67"/>
<path d="M584.507 350.097C599.62 348.503 613.208 359.364 614.975 374.46C616.747 389.556 606.044 403.268 590.974 405.216C581.062 406.497 571.232 402.351 565.229 394.363C559.226 386.374 557.985 375.776 561.974 366.615C565.963 357.455 574.567 351.145 584.507 350.097Z" fill="#932F67"/>
<path d="M407.813 350.14C422.881 348.303 436.625 358.927 438.643 373.974C440.66 389.019 430.201 402.89 415.181 405.087C405.303 406.532 395.411 402.555 389.283 394.674C383.155 386.793 381.738 376.225 385.573 367.008C389.408 357.791 397.903 351.348 407.813 350.14Z" fill="#932F67"/>
</svg>
